# xmcd
#
# Track frame offsets:
#  182
#  17272
#  31172
#
# Disc length: 643 seconds
#
# Revision: 0
# Processed by: cddbd v1.5.1PL2 Copyright (c) Steve Scherf et al.
# Submitted via: Collectorz.com_Music_Collector 6.11
#
DISCID=11028103
DTITLE=Quiet Melon - Art Wood's Quiet Melon
DYEAR=1995
DGENRE=Blues Rock
TTITLE0=Diamond Joe
TTITLE1=Engine 4444
TTITLE2=Instrumental
EXTD=
EXTT0=
EXTT1=
EXTT2=
PLAYORDER=
